<svg xmlns="http://www.w3.org/2000/svg" width="650" height="122" viewBox="0 0 650 122" fill="none"><g clip-path="url(#clip0_0_1)"><path d="M121.027 5.37961C121.768 6.12106 122.185 7.12668 122.185 8.17524V113.184C122.185 114.233 121.768 115.238 121.027 115.98L116.392 120.614C115.651 121.355 114.645 121.772 113.597 121.772H8.58784C7.53928 121.772 6.53365 121.355 5.7922 120.614L1.15799 115.98C0.416541 115.238 0 114.233 0 113.184V8.17525C0 7.12668 0.416542 6.12106 1.15799 5.37961L5.79221 0.745392C6.53365 0.003943 7.53927 -0.412598 8.58784 -0.412598H113.597C114.645 -0.412598 115.651 0.00394401 116.392 0.745393L121.027 5.37961ZM82.3165 33.2274C80.6268 34.291 80.6109 36.7486 82.2867 37.8339L89.6345 42.5926C90.1884 42.9513 90.6436 43.4429 90.9588 44.0226L93.1702 48.09C93.4853 48.6695 93.6504 49.3187 93.6504 49.9784V103.917C93.6504 106.101 95.4205 107.871 97.604 107.871H104.33C106.513 107.871 108.283 106.101 108.283 103.917V49.9264C108.283 48.5679 107.586 47.3045 106.436 46.5807L85.2283 33.2276C84.3385 32.6674 83.2063 32.6674 82.3165 33.2274ZM15.7059 53.4784C14.5807 54.207 13.9014 55.4563 13.9014 56.7969V103.917C13.9014 106.101 15.6715 107.871 17.855 107.871H47.6274C49.811 107.871 51.5811 106.101 51.5811 103.917V91.7749C51.5811 87.5322 55.02 84.0924 59.2627 84.0923C63.5055 84.0923 66.9453 87.5321 66.9453 91.7749V103.917C66.9453 106.101 68.7154 107.871 70.8989 107.871H75.7954C77.9789 107.871 79.749 106.101 79.749 103.917V54.9023C79.749 53.5618 79.0697 52.3125 77.9445 51.5838L50.4371 33.7701C49.1296 32.9234 47.4466 32.9234 46.139 33.7701L15.7059 53.4784ZM39.875 95.5029C39.875 97.6864 38.1049 99.4565 35.9214 99.4565H29.1958C27.0123 99.4565 25.2422 97.6864 25.2422 95.5029V88.0459C25.2422 85.8624 27.0123 84.0923 29.1958 84.0923H35.9214C38.1049 84.0923 39.875 85.8624 39.875 88.0459V95.5029ZM39.875 67.7002C39.875 69.8837 38.1049 71.6538 35.9214 71.6538H29.1958C27.0123 71.6538 25.2422 69.8837 25.2422 67.7002V60.2432C25.2422 58.0597 27.0123 56.2896 29.1958 56.2896H35.9214C38.1049 56.2896 39.875 58.0597 39.875 60.2432V67.7002ZM66.9453 67.7002C66.9453 69.8837 65.1752 71.6538 62.9917 71.6538H56.2661C54.0826 71.6538 52.3125 69.8837 52.3125 67.7002V60.2432C52.3125 58.0597 54.0826 56.2896 56.2661 56.2896H62.9917C65.1752 56.2896 66.9453 58.0597 66.9453 60.2432V67.7002ZM13.9014 30.8149C13.9014 33.9488 17.3735 35.8369 20.004 34.1334L43.5301 18.8983C44.1702 18.4837 44.9165 18.2632 45.6791 18.2632H50.898C51.6607 18.2632 52.407 18.4837 53.0471 18.8983L63.714 25.806C65.0062 26.6428 66.6666 26.6534 67.9694 25.8332L79.1038 18.8232C79.7346 18.4261 80.4649 18.2153 81.2103 18.2153H86.3356C87.081 18.2153 87.8113 18.4261 88.4421 18.8233L102.223 27.5002C104.856 29.1579 108.283 27.2658 108.283 24.1545V17.4424C108.283 15.2589 106.513 13.4888 104.33 13.4888H17.855C15.6715 13.4888 13.9014 15.2589 13.9014 17.4424V30.8149Z" fill="black"/></g><path d="M148.914 51.6274C148.27 51.6274 147.744 51.1008 147.744 50.4572V11.8381C147.744 11.1945 148.27 10.6679 148.914 10.6679H155.526C156.17 10.6679 156.696 11.1945 156.696 11.8381V42.0897C156.696 42.4993 156.93 42.6748 157.281 42.6748H173.782C174.426 42.6748 174.953 43.2015 174.953 43.8451V50.4572C174.953 51.1008 174.426 51.6274 173.782 51.6274H148.914ZM191.374 52.7392C186.225 52.7392 182.129 50.9838 179.379 47.8826C176.979 45.0739 175.575 41.212 175.575 36.5309C175.575 31.8498 176.979 27.9879 179.379 25.2378C182.129 22.1365 186.225 20.3811 191.374 20.3811C196.582 20.3811 200.678 22.1365 203.428 25.2378C205.827 27.9879 207.173 31.8498 207.173 36.5309C207.173 41.212 205.827 45.0739 203.428 47.8826C200.678 50.9838 196.582 52.7392 191.374 52.7392ZM184.235 36.5309C184.235 38.7544 184.82 40.5684 185.874 41.9142C187.044 43.4355 188.916 44.2547 191.374 44.2547C193.831 44.2547 195.762 43.4355 196.933 41.9142C197.986 40.5684 198.571 38.7544 198.571 36.5309C198.571 34.3659 197.986 32.4935 196.933 31.1477C195.762 29.6848 193.831 28.8071 191.374 28.8071C188.916 28.8071 187.044 29.6848 185.874 31.1477C184.82 32.4935 184.235 34.3659 184.235 36.5309ZM223.506 52.7392C214.788 52.7392 209.463 49.1699 209.17 42.8504C209.17 42.2067 209.697 41.7386 210.458 41.7386H216.66C217.421 41.7386 217.83 42.2067 218.064 42.8504C218.532 44.8984 220.229 46.1272 223.623 46.1272C227.075 46.1272 228.831 44.7813 228.831 43.0844C228.831 41.5631 228.07 40.8609 225.554 40.4513L219.059 39.3981C212.974 38.4034 210.341 35.0096 210.341 30.387C210.341 24.0675 215.841 20.3811 223.857 20.3811C231.405 20.3811 236.555 23.892 236.906 29.6263C236.964 30.3285 236.379 30.7966 235.618 30.7966H229.826C229.065 30.7966 228.655 30.3285 228.421 29.6263C227.953 28.0464 226.49 26.9932 223.74 26.9932C220.814 26.9932 219.118 28.0464 219.118 29.7433C219.118 31.2062 220.054 31.9083 222.921 32.3764L228.597 33.2541C235.267 34.2489 237.549 37.2916 237.549 42.1482C237.549 48.4092 232.81 52.7392 223.506 52.7392ZM252.317 51.6274C251.381 51.6274 250.971 50.9253 251.264 50.2231L265.541 11.7796C265.834 11.0775 266.36 10.6679 266.946 10.6679H275.547C276.132 10.6679 276.659 11.0775 276.951 11.7796L291.229 50.2231C291.521 50.9838 291.053 51.6274 290.117 51.6274H282.393C281.808 51.6274 281.399 51.4519 281.164 50.7497L278.882 44.4303C278.707 43.9621 278.356 43.6696 277.829 43.6696H264.664C264.137 43.6696 263.786 43.9621 263.61 44.4303L261.328 50.7497C261.094 51.4519 260.626 51.6274 260.1 51.6274H252.317ZM266.653 34.1319C266.36 34.834 266.77 35.1266 267.121 35.1266H275.313C275.664 35.1266 276.074 34.834 275.781 34.1319L271.744 22.1951C271.568 21.6684 270.925 21.6684 270.749 22.1951L266.653 34.1319ZM294.967 51.6274C294.324 51.6274 293.797 51.1008 293.797 50.4572V22.6632C293.797 22.0195 294.324 21.4929 294.967 21.4929H299.239C300.994 21.4929 300.702 23.1898 302.047 23.1898C303.686 23.1898 304.622 20.3811 310.064 20.3811C317.144 20.3811 321.825 25.0037 321.825 32.9031V50.4572C321.825 51.1008 321.298 51.6274 320.655 51.6274H314.569C313.926 51.6274 313.399 51.1008 313.399 50.4572V34.5414C313.399 30.9721 311.176 28.8071 307.84 28.8071C304.447 28.8071 302.281 30.9721 302.281 34.5414V50.4572C302.281 51.1008 301.755 51.6274 301.111 51.6274H294.967ZM340.92 63.2717C333.606 63.2717 328.164 59.7023 327.169 54.3191C327.052 53.5584 327.345 53.0903 328.047 53.0903H334.659C335.302 53.0903 335.771 53.3243 336.122 53.851C336.999 55.3723 338.521 56.25 341.037 56.25C344.899 56.25 347.181 53.968 347.181 51.2764V50.9838C347.181 50.1646 346.83 49.755 346.244 49.755C344.84 49.755 343.787 51.3934 339.164 51.3934C334.717 51.3934 331.323 49.872 328.983 47.1804C326.642 44.5473 325.414 40.6854 325.414 36.0043C325.414 31.2062 326.642 27.2858 328.983 24.5941C331.323 21.9025 334.717 20.3811 339.164 20.3811C344.489 20.3811 345.718 22.7802 347.356 22.7802C348.936 22.7802 348.585 21.4929 350.106 21.4929H354.202C354.846 21.4929 355.373 22.0195 355.373 22.6632V49.3454C355.373 57.7129 349.638 63.2717 340.92 63.2717ZM333.84 36.0043C333.84 38.2863 334.483 40.1002 335.595 41.3875C336.707 42.7334 338.404 43.377 340.51 43.377C342.617 43.377 344.372 42.7334 345.484 41.3875C346.596 40.1002 347.181 38.2863 347.181 36.0043C347.181 33.7223 346.596 31.9083 345.484 30.621C344.372 29.2752 342.617 28.5731 340.51 28.5731C338.404 28.5731 336.765 29.3337 335.595 30.621C334.483 31.9083 333.84 33.7223 333.84 36.0043ZM374.225 52.7392C364.57 52.7392 359.187 46.3027 359.187 36.5309C359.187 26.7591 364.746 20.3811 374.166 20.3811C383.002 20.3811 388.912 25.6474 388.912 35.5947V37.7012C388.912 38.93 388.151 39.4566 387.215 39.4566H368.842C368.432 39.4566 368.198 39.6907 368.198 40.1588C368.315 43.7281 371.182 45.7761 374.225 45.7761C376.741 45.7761 378.204 44.8399 379.082 43.4355C379.55 42.7334 380.018 42.4408 380.661 42.4408H386.922C387.566 42.4408 388.21 42.9674 387.976 43.9036C386.571 49.1114 381.773 52.7392 374.225 52.7392ZM368.14 32.4935C368.14 32.9031 368.374 33.0786 368.783 33.0786H379.725C380.076 33.0786 380.252 32.9031 380.252 32.4935C380.252 29.4508 377.794 27.0517 374.166 27.0517C370.89 27.0517 368.198 29.4508 368.14 32.4935ZM393.887 51.6274C393.244 51.6274 392.717 51.1008 392.717 50.4572V10.6679C392.717 10.0242 393.244 9.49759 393.887 9.49759H400.031C400.675 9.49759 401.202 10.0242 401.202 10.6679V50.4572C401.202 51.1008 400.675 51.6274 400.031 51.6274H393.887ZM420.058 52.7392C410.403 52.7392 405.02 46.3027 405.02 36.5309C405.02 26.7591 410.578 20.3811 419.999 20.3811C428.835 20.3811 434.745 25.6474 434.745 35.5947V37.7012C434.745 38.93 433.984 39.4566 433.048 39.4566H414.674C414.265 39.4566 414.031 39.6907 414.031 40.1588C414.148 43.7281 417.015 45.7761 420.058 45.7761C422.574 45.7761 424.037 44.8399 424.914 43.4355C425.382 42.7334 425.851 42.4408 426.494 42.4408H432.755C433.399 42.4408 434.042 42.9674 433.808 43.9036C432.404 49.1114 427.606 52.7392 420.058 52.7392ZM413.972 32.4935C413.972 32.9031 414.206 33.0786 414.616 33.0786H425.558C425.909 33.0786 426.085 32.9031 426.085 32.4935C426.085 29.4508 423.627 27.0517 419.999 27.0517C416.722 27.0517 414.031 29.4508 413.972 32.4935ZM450.836 52.7392C442.118 52.7392 436.793 49.1699 436.5 42.8504C436.5 42.2067 437.027 41.7386 437.788 41.7386H443.99C444.751 41.7386 445.16 42.2067 445.395 42.8504C445.863 44.8984 447.56 46.1272 450.953 46.1272C454.406 46.1272 456.161 44.7813 456.161 43.0844C456.161 41.5631 455.4 40.8609 452.884 40.4513L446.389 39.3981C440.304 38.4034 437.671 35.0096 437.671 30.387C437.671 24.0675 443.171 20.3811 451.187 20.3811C458.736 20.3811 463.885 23.892 464.236 29.6263C464.294 30.3285 463.709 30.7966 462.949 30.7966H457.156C456.395 30.7966 455.985 30.3285 455.751 29.6263C455.283 28.0464 453.82 26.9932 451.07 26.9932C448.145 26.9932 446.448 28.0464 446.448 29.7433C446.448 31.2062 447.384 31.9083 450.251 32.3764L455.927 33.2541C462.598 34.2489 464.88 37.2916 464.88 42.1482C464.88 48.4092 460.14 52.7392 450.836 52.7392ZM165.883 111.739C159.622 111.739 154.59 109.457 150.962 105.595C147.568 101.85 145.813 96.5256 145.813 90.1477C145.813 83.7697 147.568 78.4449 150.962 74.7C154.59 70.8381 159.622 68.5561 165.883 68.5561C174.894 68.5561 182.793 74.1734 183.496 82.1898C183.613 83.0675 183.203 83.6526 182.442 83.6526H176.006C175.011 83.6526 174.601 83.3016 174.309 82.7164C173.256 80.2003 170.623 77.5087 165.883 77.5087C162.255 77.5087 159.622 78.796 157.691 81.078C155.877 83.243 155.058 86.3443 155.058 90.1477C155.058 93.951 155.877 97.0523 157.691 99.2173C159.622 101.499 162.314 102.787 165.883 102.787C170.623 102.787 173.256 100.095 174.309 97.5789C174.601 96.9938 175.011 96.6427 176.006 96.6427H182.442C183.203 96.6427 183.613 97.2278 183.496 98.1055C182.793 106.122 174.894 111.739 165.883 111.739ZM201.374 111.739C196.225 111.739 192.129 109.984 189.378 106.883C186.979 104.074 185.575 100.212 185.575 95.5309C185.575 90.8498 186.979 86.9879 189.378 84.2378C192.129 81.1365 196.225 79.3811 201.374 79.3811C206.581 79.3811 210.677 81.1365 213.428 84.2378C215.827 86.9879 217.172 90.8498 217.172 95.5309C217.172 100.212 215.827 104.074 213.428 106.883C210.677 109.984 206.581 111.739 201.374 111.739ZM194.235 95.5309C194.235 97.7544 194.82 99.5684 195.873 100.914C197.044 102.436 198.916 103.255 201.374 103.255C203.831 103.255 205.762 102.436 206.933 100.914C207.986 99.5684 208.571 97.7544 208.571 95.5309C208.571 93.3659 207.986 91.4935 206.933 90.1477C205.762 88.6848 203.831 87.8071 201.374 87.8071C198.916 87.8071 197.044 88.6848 195.873 90.1477C194.82 91.4935 194.235 93.3659 194.235 95.5309ZM222.333 110.627C221.689 110.627 221.162 110.101 221.162 109.457V81.6632C221.162 81.0195 221.689 80.4929 222.333 80.4929H226.604C228.36 80.4929 228.067 82.1898 229.413 82.1898C231.051 82.1898 231.987 79.3811 237.429 79.3811C244.509 79.3811 249.19 84.0037 249.19 91.9031V109.457C249.19 110.101 248.664 110.627 248.02 110.627H241.935C241.291 110.627 240.764 110.101 240.764 109.457V93.5414C240.764 89.9721 238.541 87.8071 235.206 87.8071C231.812 87.8071 229.647 89.9721 229.647 93.5414V109.457C229.647 110.101 229.12 110.627 228.477 110.627H222.333ZM268.18 110.627C261.51 110.627 258.175 106.297 258.175 100.622V89.0359C258.175 88.6848 257.94 88.4508 257.589 88.4508H252.148C251.504 88.4508 250.977 87.9241 250.977 87.2805V81.6632C250.977 81.0195 251.504 80.4929 252.148 80.4929H257.589C257.94 80.4929 258.175 80.2588 258.175 79.9078V71.5403C258.175 70.8967 258.701 70.37 259.345 70.37H265.489C266.132 70.37 266.659 70.8967 266.659 71.5403V79.9078C266.659 80.2588 266.893 80.4929 267.244 80.4929H274.734C275.378 80.4929 275.904 81.0195 275.904 81.6632V87.2805C275.904 87.9241 275.378 88.4508 274.734 88.4508H267.244C266.893 88.4508 266.659 88.6848 266.659 89.0359V99.1588C266.659 101.207 267.712 102.201 269.702 102.201H274.734C275.378 102.201 275.904 102.728 275.904 103.372V109.457C275.904 110.101 275.378 110.627 274.734 110.627H268.18ZM280.908 110.627C280.264 110.627 279.738 110.101 279.738 109.457V81.6632C279.738 81.0195 280.264 80.4929 280.908 80.4929H287.052C287.754 80.4929 288.222 81.0195 288.222 81.6632V109.457C288.222 110.101 287.754 110.627 287.052 110.627H280.908ZM279.387 75.9288V69.7264C279.387 69.2583 279.796 68.7902 280.323 68.7902H287.754C288.281 68.7902 288.69 69.2583 288.69 69.7264V75.9288C288.69 76.4555 288.281 76.865 287.754 76.865H280.323C279.796 76.865 279.387 76.4555 279.387 75.9288ZM295.139 110.627C294.495 110.627 293.968 110.101 293.968 109.457V81.6632C293.968 81.0195 294.495 80.4929 295.139 80.4929H299.41C301.166 80.4929 300.873 82.1898 302.219 82.1898C303.857 82.1898 304.793 79.3811 310.235 79.3811C317.315 79.3811 321.996 84.0037 321.996 91.9031V109.457C321.996 110.101 321.47 110.627 320.826 110.627H314.741C314.097 110.627 313.571 110.101 313.571 109.457V93.5414C313.571 89.9721 311.347 87.8071 308.012 87.8071C304.618 87.8071 302.453 89.9721 302.453 93.5414V109.457C302.453 110.101 301.926 110.627 301.283 110.627H295.139ZM338.289 111.739C331.326 111.739 326.762 107.117 326.762 99.2758V81.6632C326.762 81.0195 327.289 80.4929 327.932 80.4929H334.076C334.72 80.4929 335.247 81.0195 335.247 81.6632V97.6374C335.247 101.148 337.353 103.255 340.513 103.255C343.731 103.255 345.779 101.148 345.779 97.6374V81.6632C345.779 81.0195 346.306 80.4929 346.949 80.4929H353.093C353.737 80.4929 354.264 81.0195 354.264 81.6632V109.457C354.264 110.101 353.737 110.627 353.093 110.627H348.88C347.066 110.627 347.417 108.931 346.013 108.931C344.492 108.931 343.556 111.739 338.289 111.739ZM371.148 111.739C364.185 111.739 359.621 107.117 359.621 99.2758V81.6632C359.621 81.0195 360.148 80.4929 360.792 80.4929H366.935C367.579 80.4929 368.106 81.0195 368.106 81.6632V97.6374C368.106 101.148 370.212 103.255 373.372 103.255C376.59 103.255 378.638 101.148 378.638 97.6374V81.6632C378.638 81.0195 379.165 80.4929 379.808 80.4929H385.952C386.596 80.4929 387.123 81.0195 387.123 81.6632V109.457C387.123 110.101 386.596 110.627 385.952 110.627H381.739C379.925 110.627 380.277 108.931 378.872 108.931C377.351 108.931 376.415 111.739 371.148 111.739ZM394.002 110.627C393.358 110.627 392.831 110.101 392.831 109.457V81.6632C392.831 81.0195 393.358 80.4929 394.002 80.4929H398.273C400.029 80.4929 399.736 82.1898 401.082 82.1898C402.603 82.1898 403.656 79.3811 408.747 79.3811C414.657 79.3811 415.652 83.009 417.524 83.009C419.338 83.009 420.625 79.3811 426.711 79.3811C433.44 79.3811 437.945 84.0037 437.945 91.7275V109.457C437.945 110.101 437.419 110.627 436.775 110.627H430.631C429.988 110.627 429.461 110.101 429.461 109.457V93.1319C429.461 89.9136 427.53 87.8071 424.546 87.8071C421.562 87.8071 419.631 89.9136 419.631 93.1319V109.457C419.631 110.101 419.104 110.627 418.46 110.627H412.316C411.673 110.627 411.146 110.101 411.146 109.457V93.1319C411.146 89.9136 409.215 87.8071 406.231 87.8071C403.247 87.8071 401.316 89.9136 401.316 93.1319V109.457C401.316 110.101 400.789 110.627 400.146 110.627H394.002ZM470.077 111.739C464.928 111.739 460.832 109.984 458.082 106.883C455.683 104.074 454.279 100.212 454.279 95.5309C454.279 90.8498 455.683 86.9879 458.082 84.2378C460.832 81.1365 464.928 79.3811 470.077 79.3811C475.285 79.3811 479.381 81.1365 482.131 84.2378C484.53 86.9879 485.876 90.8498 485.876 95.5309C485.876 100.212 484.53 104.074 482.131 106.883C479.381 109.984 475.285 111.739 470.077 111.739ZM462.939 95.5309C462.939 97.7544 463.524 99.5684 464.577 100.914C465.747 102.436 467.62 103.255 470.077 103.255C472.535 103.255 474.466 102.436 475.636 100.914C476.689 99.5684 477.274 97.7544 477.274 95.5309C477.274 93.3659 476.689 91.4935 475.636 90.1477C474.466 88.6848 472.535 87.8071 470.077 87.8071C467.62 87.8071 465.747 88.6848 464.577 90.1477C463.524 91.4935 462.939 93.3659 462.939 95.5309ZM495.078 110.627C494.434 110.627 493.907 110.101 493.907 109.457V89.0359C493.907 88.6848 493.673 88.4508 493.322 88.4508H487.763C487.12 88.4508 486.593 87.9241 486.593 87.2805V81.6632C486.593 81.0195 487.12 80.4929 487.763 80.4929H493.322C493.673 80.4929 493.907 80.2588 493.907 79.9078V78.1524C493.907 72.0669 498.296 68.4976 503.972 68.4976H509.706C510.35 68.4976 510.876 69.0242 510.876 69.6679V75.3437C510.876 75.5192 510.35 76.0459 509.706 76.0459H504.791C503.387 76.0459 502.333 76.9236 502.333 78.5034V79.9078C502.333 80.2588 502.567 80.4929 502.918 80.4929H510.291C510.935 80.4929 511.461 81.0195 511.461 81.6632V87.2805C511.461 87.9241 510.935 88.4508 510.291 88.4508H502.918C502.567 88.4508 502.333 88.6848 502.333 89.0359V109.457C502.333 110.101 501.807 110.627 501.163 110.627H495.078ZM546.309 111.739C540.048 111.739 535.016 109.457 531.388 105.595C527.994 101.85 526.238 96.5256 526.238 90.1477C526.238 83.7697 527.994 78.4449 531.388 74.7C535.016 70.8381 540.048 68.5561 546.309 68.5561C555.32 68.5561 563.219 74.1734 563.921 82.1898C564.038 83.0675 563.629 83.6526 562.868 83.6526H556.432C555.437 83.6526 555.027 83.3016 554.735 82.7164C553.681 80.2003 551.048 77.5087 546.309 77.5087C542.681 77.5087 540.048 78.796 538.117 81.078C536.303 83.243 535.484 86.3443 535.484 90.1477C535.484 93.951 536.303 97.0523 538.117 99.2173C540.048 101.499 542.739 102.787 546.309 102.787C551.048 102.787 553.681 100.095 554.735 97.5789C555.027 96.9938 555.437 96.6427 556.432 96.6427H562.868C563.629 96.6427 564.038 97.2278 563.921 98.1055C563.219 106.122 555.32 111.739 546.309 111.739ZM576.767 111.739C570.272 111.739 566.001 107.526 566.001 101.558C566.001 95.765 569.804 91.8446 577.118 91.8446H585.018C585.427 91.8446 585.603 91.669 585.603 91.2594V90.4402C585.603 88.0412 584.023 86.4028 580.571 86.4028C577.704 86.4028 575.773 87.339 575.422 88.9189C575.187 89.7381 574.719 89.9136 573.959 89.9136H568.224C567.464 89.9136 566.996 89.504 567.054 88.7433C567.405 83.5356 572.613 79.3811 580.395 79.3811C588.821 79.3811 593.619 83.0675 593.619 90.7328V109.457C593.619 110.101 593.093 110.627 592.449 110.627H588.236C586.539 110.627 586.949 108.814 585.193 108.814C583.613 108.814 582.151 111.739 576.767 111.739ZM574.661 101.148C574.661 103.489 576.358 104.718 579.517 104.718C582.911 104.718 585.603 103.079 585.603 100.036V98.8662C585.603 98.3981 585.427 98.2225 585.018 98.2225H577.879C575.831 98.2225 574.661 99.3343 574.661 101.148ZM600.244 110.627C599.6 110.627 599.074 110.101 599.074 109.457V81.6632C599.074 81.0195 599.6 80.4929 600.244 80.4929H604.516C605.042 80.4929 605.686 80.7855 605.861 81.6047C606.095 82.7164 606.33 83.7112 607.266 83.7112C608.963 83.7112 609.723 80.4929 615.399 80.4929H618.032C618.676 80.4929 619.203 81.0195 619.203 81.6632V88.0412C619.203 88.6848 618.676 89.2114 618.032 89.2114H614.931C610.601 89.2114 607.558 91.552 607.558 96.7597V109.457C607.558 110.101 607.032 110.627 606.388 110.627H600.244ZM634.529 111.739C624.874 111.739 619.491 105.303 619.491 95.5309C619.491 85.7591 625.049 79.3811 634.47 79.3811C643.306 79.3811 649.215 84.6474 649.215 94.5947V96.7012C649.215 97.93 648.455 98.4566 647.519 98.4566H629.145C628.736 98.4566 628.502 98.6907 628.502 99.1588C628.619 102.728 631.486 104.776 634.529 104.776C637.045 104.776 638.507 103.84 639.385 102.436C639.853 101.733 640.321 101.441 640.965 101.441H647.226C647.87 101.441 648.513 101.967 648.279 102.904C646.875 108.111 642.077 111.739 634.529 111.739ZM628.443 91.4935C628.443 91.9031 628.677 92.0786 629.087 92.0786H640.029C640.38 92.0786 640.555 91.9031 640.555 91.4935C640.555 88.4508 638.098 86.0517 634.47 86.0517C631.193 86.0517 628.502 88.4508 628.443 91.4935Z" fill="#272727"/><defs><clipPath id="clip0_0_1"><rect width="121.772" height="121.772" fill="white"/></clipPath></defs></svg>